<?xml version="1.0" encoding="UTF-8" ?>
<svg version="1.1" width="60" height="16" xmlns="http://www.w3.org/2000/svg" shape-rendering="crispEdges">
<rect x="6" y="2" width="1" height="1" fill="#FA6A0A" />
<rect x="7" y="2" width="1" height="1" fill="#FA6A0A" />
<rect x="5" y="3" width="1" height="1" fill="#FA6A0A" />
<rect x="6" y="3" width="1" height="1" fill="#FA6A0A" />
<rect x="7" y="3" width="1" height="1" fill="#FA6A0A" />
<rect x="8" y="3" width="1" height="1" fill="#FA6A0A" />
<rect x="14" y="3" width="1" height="1" fill="#E4D2AA" />
<rect x="19" y="3" width="1" height="1" fill="#E4D2AA" />
<rect x="22" y="3" width="1" height="1" fill="#E4D2AA" />
<rect x="5" y="4" width="1" height="1" fill="#FA6A0A" />
<rect x="6" y="4" width="1" height="1" fill="#FA6A0A" />
<rect x="7" y="4" width="1" height="1" fill="#FA6A0A" />
<rect x="8" y="4" width="1" height="1" fill="#FA6A0A" />
<rect x="14" y="4" width="1" height="1" fill="#E4D2AA" />
<rect x="22" y="4" width="1" height="1" fill="#E4D2AA" />
<rect x="6" y="5" width="1" height="1" fill="#FA6A0A" />
<rect x="7" y="5" width="1" height="1" fill="#FA6A0A" />
<rect x="14" y="5" width="1" height="1" fill="#E4D2AA" />
<rect x="22" y="5" width="1" height="1" fill="#E4D2AA" />
<rect x="4" y="6" width="1" height="1" fill="#FA6A0A" />
<rect x="5" y="6" width="1" height="1" fill="#FA6A0A" />
<rect x="6" y="6" width="1" height="1" fill="#FA6A0A" />
<rect x="7" y="6" width="1" height="1" fill="#FA6A0A" />
<rect x="8" y="6" width="1" height="1" fill="#FA6A0A" />
<rect x="9" y="6" width="1" height="1" fill="#FA6A0A" />
<rect x="14" y="6" width="1" height="1" fill="#E4D2AA" />
<rect x="15" y="6" width="1" height="1" fill="#E4D2AA" />
<rect x="16" y="6" width="1" height="1" fill="#E4D2AA" />
<rect x="19" y="6" width="1" height="1" fill="#E4D2AA" />
<rect x="21" y="6" width="1" height="1" fill="#E4D2AA" />
<rect x="22" y="6" width="1" height="1" fill="#E4D2AA" />
<rect x="23" y="6" width="1" height="1" fill="#E4D2AA" />
<rect x="25" y="6" width="1" height="1" fill="#E4D2AA" />
<rect x="26" y="6" width="1" height="1" fill="#E4D2AA" />
<rect x="28" y="6" width="1" height="1" fill="#E4D2AA" />
<rect x="29" y="6" width="1" height="1" fill="#E4D2AA" />
<rect x="32" y="6" width="1" height="1" fill="#E4D2AA" />
<rect x="33" y="6" width="1" height="1" fill="#E4D2AA" />
<rect x="37" y="6" width="1" height="1" fill="#E4D2AA" />
<rect x="38" y="6" width="1" height="1" fill="#E4D2AA" />
<rect x="39" y="6" width="1" height="1" fill="#E4D2AA" />
<rect x="42" y="6" width="1" height="1" fill="#E4D2AA" />
<rect x="43" y="6" width="1" height="1" fill="#E4D2AA" />
<rect x="45" y="6" width="1" height="1" fill="#E4D2AA" />
<rect x="46" y="6" width="1" height="1" fill="#E4D2AA" />
<rect x="49" y="6" width="1" height="1" fill="#E4D2AA" />
<rect x="50" y="6" width="1" height="1" fill="#E4D2AA" />
<rect x="54" y="6" width="1" height="1" fill="#E4D2AA" />
<rect x="55" y="6" width="1" height="1" fill="#E4D2AA" />
<rect x="56" y="6" width="1" height="1" fill="#E4D2AA" />
<rect x="3" y="7" width="1" height="1" fill="#FA6A0A" />
<rect x="5" y="7" width="1" height="1" fill="#FA6A0A" />
<rect x="6" y="7" width="1" height="1" fill="#FA6A0A" />
<rect x="7" y="7" width="1" height="1" fill="#FA6A0A" />
<rect x="8" y="7" width="1" height="1" fill="#FA6A0A" />
<rect x="10" y="7" width="1" height="1" fill="#FA6A0A" />
<rect x="14" y="7" width="1" height="1" fill="#E4D2AA" />
<rect x="17" y="7" width="1" height="1" fill="#E4D2AA" />
<rect x="19" y="7" width="1" height="1" fill="#E4D2AA" />
<rect x="22" y="7" width="1" height="1" fill="#E4D2AA" />
<rect x="25" y="7" width="1" height="1" fill="#E4D2AA" />
<rect x="27" y="7" width="1" height="1" fill="#E4D2AA" />
<rect x="29" y="7" width="1" height="1" fill="#E4D2AA" />
<rect x="31" y="7" width="1" height="1" fill="#E4D2AA" />
<rect x="34" y="7" width="1" height="1" fill="#E4D2AA" />
<rect x="37" y="7" width="1" height="1" fill="#E4D2AA" />
<rect x="40" y="7" width="1" height="1" fill="#E4D2AA" />
<rect x="42" y="7" width="1" height="1" fill="#E4D2AA" />
<rect x="44" y="7" width="1" height="1" fill="#E4D2AA" />
<rect x="46" y="7" width="1" height="1" fill="#E4D2AA" />
<rect x="48" y="7" width="1" height="1" fill="#E4D2AA" />
<rect x="51" y="7" width="1" height="1" fill="#E4D2AA" />
<rect x="54" y="7" width="1" height="1" fill="#E4D2AA" />
<rect x="57" y="7" width="1" height="1" fill="#E4D2AA" />
<rect x="3" y="8" width="1" height="1" fill="#FA6A0A" />
<rect x="5" y="8" width="1" height="1" fill="#FA6A0A" />
<rect x="6" y="8" width="1" height="1" fill="#FA6A0A" />
<rect x="7" y="8" width="1" height="1" fill="#FA6A0A" />
<rect x="8" y="8" width="1" height="1" fill="#FA6A0A" />
<rect x="10" y="8" width="1" height="1" fill="#FA6A0A" />
<rect x="14" y="8" width="1" height="1" fill="#E4D2AA" />
<rect x="17" y="8" width="1" height="1" fill="#E4D2AA" />
<rect x="19" y="8" width="1" height="1" fill="#E4D2AA" />
<rect x="22" y="8" width="1" height="1" fill="#E4D2AA" />
<rect x="25" y="8" width="1" height="1" fill="#E4D2AA" />
<rect x="27" y="8" width="1" height="1" fill="#E4D2AA" />
<rect x="29" y="8" width="1" height="1" fill="#E4D2AA" />
<rect x="31" y="8" width="1" height="1" fill="#E4D2AA" />
<rect x="34" y="8" width="1" height="1" fill="#E4D2AA" />
<rect x="37" y="8" width="1" height="1" fill="#E4D2AA" />
<rect x="40" y="8" width="1" height="1" fill="#E4D2AA" />
<rect x="42" y="8" width="1" height="1" fill="#E4D2AA" />
<rect x="44" y="8" width="1" height="1" fill="#E4D2AA" />
<rect x="46" y="8" width="1" height="1" fill="#E4D2AA" />
<rect x="48" y="8" width="1" height="1" fill="#E4D2AA" />
<rect x="51" y="8" width="1" height="1" fill="#E4D2AA" />
<rect x="54" y="8" width="1" height="1" fill="#E4D2AA" />
<rect x="57" y="8" width="1" height="1" fill="#E4D2AA" />
<rect x="3" y="9" width="1" height="1" fill="#FA6A0A" />
<rect x="5" y="9" width="1" height="1" fill="#FA6A0A" />
<rect x="6" y="9" width="1" height="1" fill="#FA6A0A" />
<rect x="7" y="9" width="1" height="1" fill="#FA6A0A" />
<rect x="8" y="9" width="1" height="1" fill="#FA6A0A" />
<rect x="10" y="9" width="1" height="1" fill="#FA6A0A" />
<rect x="14" y="9" width="1" height="1" fill="#E4D2AA" />
<rect x="17" y="9" width="1" height="1" fill="#E4D2AA" />
<rect x="19" y="9" width="1" height="1" fill="#E4D2AA" />
<rect x="22" y="9" width="1" height="1" fill="#E4D2AA" />
<rect x="25" y="9" width="1" height="1" fill="#E4D2AA" />
<rect x="29" y="9" width="1" height="1" fill="#E4D2AA" />
<rect x="31" y="9" width="1" height="1" fill="#E4D2AA" />
<rect x="34" y="9" width="1" height="1" fill="#E4D2AA" />
<rect x="37" y="9" width="1" height="1" fill="#E4D2AA" />
<rect x="40" y="9" width="1" height="1" fill="#E4D2AA" />
<rect x="42" y="9" width="1" height="1" fill="#E4D2AA" />
<rect x="46" y="9" width="1" height="1" fill="#E4D2AA" />
<rect x="48" y="9" width="1" height="1" fill="#E4D2AA" />
<rect x="51" y="9" width="1" height="1" fill="#E4D2AA" />
<rect x="54" y="9" width="1" height="1" fill="#E4D2AA" />
<rect x="57" y="9" width="1" height="1" fill="#E4D2AA" />
<rect x="5" y="10" width="1" height="1" fill="#FA6A0A" />
<rect x="8" y="10" width="1" height="1" fill="#FA6A0A" />
<rect x="14" y="10" width="1" height="1" fill="#E4D2AA" />
<rect x="15" y="10" width="1" height="1" fill="#E4D2AA" />
<rect x="16" y="10" width="1" height="1" fill="#E4D2AA" />
<rect x="19" y="10" width="1" height="1" fill="#E4D2AA" />
<rect x="22" y="10" width="1" height="1" fill="#E4D2AA" />
<rect x="23" y="10" width="1" height="1" fill="#E4D2AA" />
<rect x="25" y="10" width="1" height="1" fill="#E4D2AA" />
<rect x="29" y="10" width="1" height="1" fill="#E4D2AA" />
<rect x="32" y="10" width="1" height="1" fill="#E4D2AA" />
<rect x="33" y="10" width="1" height="1" fill="#E4D2AA" />
<rect x="35" y="10" width="1" height="1" fill="#E4D2AA" />
<rect x="37" y="10" width="1" height="1" fill="#E4D2AA" />
<rect x="38" y="10" width="1" height="1" fill="#E4D2AA" />
<rect x="39" y="10" width="1" height="1" fill="#E4D2AA" />
<rect x="42" y="10" width="1" height="1" fill="#E4D2AA" />
<rect x="46" y="10" width="1" height="1" fill="#E4D2AA" />
<rect x="49" y="10" width="1" height="1" fill="#E4D2AA" />
<rect x="50" y="10" width="1" height="1" fill="#E4D2AA" />
<rect x="52" y="10" width="1" height="1" fill="#E4D2AA" />
<rect x="54" y="10" width="1" height="1" fill="#E4D2AA" />
<rect x="57" y="10" width="1" height="1" fill="#E4D2AA" />
<rect x="5" y="11" width="1" height="1" fill="#FA6A0A" />
<rect x="8" y="11" width="1" height="1" fill="#FA6A0A" />
<rect x="37" y="11" width="1" height="1" fill="#E4D2AA" />
<rect x="5" y="12" width="1" height="1" fill="#FA6A0A" />
<rect x="8" y="12" width="1" height="1" fill="#FA6A0A" />
<rect x="37" y="12" width="1" height="1" fill="#E4D2AA" />
<rect x="5" y="13" width="1" height="1" fill="#FA6A0A" />
<rect x="8" y="13" width="1" height="1" fill="#FA6A0A" />
<rect x="37" y="13" width="1" height="1" fill="#E4D2AA" />
</svg>