<?xml version="1.0" encoding="UTF-8" ?>
<svg version="1.1" width="64" height="64" xmlns="http://www.w3.org/2000/svg" shape-rendering="crispEdges">
<rect x="28" y="10" width="1" height="1" fill="#FA6A0A" />
<rect x="29" y="10" width="1" height="1" fill="#FA6A0A" />
<rect x="30" y="10" width="1" height="1" fill="#FA6A0A" />
<rect x="31" y="10" width="1" height="1" fill="#FA6A0A" />
<rect x="32" y="10" width="1" height="1" fill="#FA6A0A" />
<rect x="33" y="10" width="1" height="1" fill="#FA6A0A" />
<rect x="34" y="10" width="1" height="1" fill="#FA6A0A" />
<rect x="35" y="10" width="1" height="1" fill="#FA6A0A" />
<rect x="27" y="11" width="1" height="1" fill="#FA6A0A" />
<rect x="28" y="11" width="1" height="1" fill="#FA6A0A" />
<rect x="29" y="11" width="1" height="1" fill="#FA6A0A" />
<rect x="30" y="11" width="1" height="1" fill="#FA6A0A" />
<rect x="31" y="11" width="1" height="1" fill="#FA6A0A" />
<rect x="32" y="11" width="1" height="1" fill="#FA6A0A" />
<rect x="33" y="11" width="1" height="1" fill="#FA6A0A" />
<rect x="34" y="11" width="1" height="1" fill="#FA6A0A" />
<rect x="35" y="11" width="1" height="1" fill="#FA6A0A" />
<rect x="36" y="11" width="1" height="1" fill="#FA6A0A" />
<rect x="27" y="12" width="1" height="1" fill="#FA6A0A" />
<rect x="28" y="12" width="1" height="1" fill="#FA6A0A" />
<rect x="29" y="12" width="1" height="1" fill="#FA6A0A" />
<rect x="30" y="12" width="1" height="1" fill="#FA6A0A" />
<rect x="31" y="12" width="1" height="1" fill="#FA6A0A" />
<rect x="32" y="12" width="1" height="1" fill="#FA6A0A" />
<rect x="33" y="12" width="1" height="1" fill="#FA6A0A" />
<rect x="34" y="12" width="1" height="1" fill="#FA6A0A" />
<rect x="35" y="12" width="1" height="1" fill="#FA6A0A" />
<rect x="36" y="12" width="1" height="1" fill="#FA6A0A" />
<rect x="27" y="13" width="1" height="1" fill="#FA6A0A" />
<rect x="28" y="13" width="1" height="1" fill="#FA6A0A" />
<rect x="29" y="13" width="1" height="1" fill="#FA6A0A" />
<rect x="30" y="13" width="1" height="1" fill="#FA6A0A" />
<rect x="31" y="13" width="1" height="1" fill="#FA6A0A" />
<rect x="32" y="13" width="1" height="1" fill="#FA6A0A" />
<rect x="33" y="13" width="1" height="1" fill="#FA6A0A" />
<rect x="34" y="13" width="1" height="1" fill="#FA6A0A" />
<rect x="35" y="13" width="1" height="1" fill="#FA6A0A" />
<rect x="36" y="13" width="1" height="1" fill="#FA6A0A" />
<rect x="27" y="14" width="1" height="1" fill="#FA6A0A" />
<rect x="28" y="14" width="1" height="1" fill="#FA6A0A" />
<rect x="29" y="14" width="1" height="1" fill="#FA6A0A" />
<rect x="30" y="14" width="1" height="1" fill="#FA6A0A" />
<rect x="31" y="14" width="1" height="1" fill="#FA6A0A" />
<rect x="32" y="14" width="1" height="1" fill="#FA6A0A" />
<rect x="33" y="14" width="1" height="1" fill="#FA6A0A" />
<rect x="34" y="14" width="1" height="1" fill="#FA6A0A" />
<rect x="35" y="14" width="1" height="1" fill="#FA6A0A" />
<rect x="36" y="14" width="1" height="1" fill="#FA6A0A" />
<rect x="27" y="15" width="1" height="1" fill="#FA6A0A" />
<rect x="28" y="15" width="1" height="1" fill="#FA6A0A" />
<rect x="29" y="15" width="1" height="1" fill="#FA6A0A" />
<rect x="30" y="15" width="1" height="1" fill="#FA6A0A" />
<rect x="31" y="15" width="1" height="1" fill="#FA6A0A" />
<rect x="32" y="15" width="1" height="1" fill="#FA6A0A" />
<rect x="33" y="15" width="1" height="1" fill="#FA6A0A" />
<rect x="34" y="15" width="1" height="1" fill="#FA6A0A" />
<rect x="35" y="15" width="1" height="1" fill="#FA6A0A" />
<rect x="36" y="15" width="1" height="1" fill="#FA6A0A" />
<rect x="27" y="16" width="1" height="1" fill="#FA6A0A" />
<rect x="28" y="16" width="1" height="1" fill="#FA6A0A" />
<rect x="29" y="16" width="1" height="1" fill="#FA6A0A" />
<rect x="30" y="16" width="1" height="1" fill="#FA6A0A" />
<rect x="31" y="16" width="1" height="1" fill="#FA6A0A" />
<rect x="32" y="16" width="1" height="1" fill="#FA6A0A" />
<rect x="33" y="16" width="1" height="1" fill="#FA6A0A" />
<rect x="34" y="16" width="1" height="1" fill="#FA6A0A" />
<rect x="35" y="16" width="1" height="1" fill="#FA6A0A" />
<rect x="36" y="16" width="1" height="1" fill="#FA6A0A" />
<rect x="27" y="17" width="1" height="1" fill="#FA6A0A" />
<rect x="28" y="17" width="1" height="1" fill="#FA6A0A" />
<rect x="29" y="17" width="1" height="1" fill="#FA6A0A" />
<rect x="30" y="17" width="1" height="1" fill="#FA6A0A" />
<rect x="31" y="17" width="1" height="1" fill="#FA6A0A" />
<rect x="32" y="17" width="1" height="1" fill="#FA6A0A" />
<rect x="33" y="17" width="1" height="1" fill="#FA6A0A" />
<rect x="34" y="17" width="1" height="1" fill="#FA6A0A" />
<rect x="35" y="17" width="1" height="1" fill="#FA6A0A" />
<rect x="36" y="17" width="1" height="1" fill="#FA6A0A" />
<rect x="28" y="18" width="1" height="1" fill="#FA6A0A" />
<rect x="29" y="18" width="1" height="1" fill="#FA6A0A" />
<rect x="30" y="18" width="1" height="1" fill="#FA6A0A" />
<rect x="31" y="18" width="1" height="1" fill="#FA6A0A" />
<rect x="32" y="18" width="1" height="1" fill="#FA6A0A" />
<rect x="33" y="18" width="1" height="1" fill="#FA6A0A" />
<rect x="34" y="18" width="1" height="1" fill="#FA6A0A" />
<rect x="35" y="18" width="1" height="1" fill="#FA6A0A" />
<rect x="29" y="19" width="1" height="1" fill="#FA6A0A" />
<rect x="30" y="19" width="1" height="1" fill="#FA6A0A" />
<rect x="31" y="19" width="1" height="1" fill="#FA6A0A" />
<rect x="32" y="19" width="1" height="1" fill="#FA6A0A" />
<rect x="33" y="19" width="1" height="1" fill="#FA6A0A" />
<rect x="34" y="19" width="1" height="1" fill="#FA6A0A" />
<rect x="27" y="20" width="1" height="1" fill="#FA6A0A" />
<rect x="28" y="20" width="1" height="1" fill="#FA6A0A" />
<rect x="29" y="20" width="1" height="1" fill="#FA6A0A" />
<rect x="30" y="20" width="1" height="1" fill="#FA6A0A" />
<rect x="31" y="20" width="1" height="1" fill="#FA6A0A" />
<rect x="32" y="20" width="1" height="1" fill="#FA6A0A" />
<rect x="33" y="20" width="1" height="1" fill="#FA6A0A" />
<rect x="34" y="20" width="1" height="1" fill="#FA6A0A" />
<rect x="35" y="20" width="1" height="1" fill="#FA6A0A" />
<rect x="36" y="20" width="1" height="1" fill="#FA6A0A" />
<rect x="25" y="21" width="1" height="1" fill="#FA6A0A" />
<rect x="26" y="21" width="1" height="1" fill="#FA6A0A" />
<rect x="27" y="21" width="1" height="1" fill="#FA6A0A" />
<rect x="28" y="21" width="1" height="1" fill="#FA6A0A" />
<rect x="29" y="21" width="1" height="1" fill="#FA6A0A" />
<rect x="30" y="21" width="1" height="1" fill="#FA6A0A" />
<rect x="31" y="21" width="1" height="1" fill="#FA6A0A" />
<rect x="32" y="21" width="1" height="1" fill="#FA6A0A" />
<rect x="33" y="21" width="1" height="1" fill="#FA6A0A" />
<rect x="34" y="21" width="1" height="1" fill="#FA6A0A" />
<rect x="35" y="21" width="1" height="1" fill="#FA6A0A" />
<rect x="36" y="21" width="1" height="1" fill="#FA6A0A" />
<rect x="37" y="21" width="1" height="1" fill="#FA6A0A" />
<rect x="38" y="21" width="1" height="1" fill="#FA6A0A" />
<rect x="24" y="22" width="1" height="1" fill="#FA6A0A" />
<rect x="25" y="22" width="1" height="1" fill="#FA6A0A" />
<rect x="26" y="22" width="1" height="1" fill="#FA6A0A" />
<rect x="27" y="22" width="1" height="1" fill="#FA6A0A" />
<rect x="28" y="22" width="1" height="1" fill="#FA6A0A" />
<rect x="29" y="22" width="1" height="1" fill="#FA6A0A" />
<rect x="30" y="22" width="1" height="1" fill="#FA6A0A" />
<rect x="31" y="22" width="1" height="1" fill="#FA6A0A" />
<rect x="32" y="22" width="1" height="1" fill="#FA6A0A" />
<rect x="33" y="22" width="1" height="1" fill="#FA6A0A" />
<rect x="34" y="22" width="1" height="1" fill="#FA6A0A" />
<rect x="35" y="22" width="1" height="1" fill="#FA6A0A" />
<rect x="36" y="22" width="1" height="1" fill="#FA6A0A" />
<rect x="37" y="22" width="1" height="1" fill="#FA6A0A" />
<rect x="38" y="22" width="1" height="1" fill="#FA6A0A" />
<rect x="39" y="22" width="1" height="1" fill="#FA6A0A" />
<rect x="24" y="23" width="1" height="1" fill="#FA6A0A" />
<rect x="25" y="23" width="1" height="1" fill="#FA6A0A" />
<rect x="27" y="23" width="1" height="1" fill="#FA6A0A" />
<rect x="28" y="23" width="1" height="1" fill="#FA6A0A" />
<rect x="29" y="23" width="1" height="1" fill="#FA6A0A" />
<rect x="30" y="23" width="1" height="1" fill="#FA6A0A" />
<rect x="31" y="23" width="1" height="1" fill="#FA6A0A" />
<rect x="32" y="23" width="1" height="1" fill="#FA6A0A" />
<rect x="33" y="23" width="1" height="1" fill="#FA6A0A" />
<rect x="34" y="23" width="1" height="1" fill="#FA6A0A" />
<rect x="35" y="23" width="1" height="1" fill="#FA6A0A" />
<rect x="36" y="23" width="1" height="1" fill="#FA6A0A" />
<rect x="38" y="23" width="1" height="1" fill="#FA6A0A" />
<rect x="39" y="23" width="1" height="1" fill="#FA6A0A" />
<rect x="24" y="24" width="1" height="1" fill="#FA6A0A" />
<rect x="25" y="24" width="1" height="1" fill="#FA6A0A" />
<rect x="27" y="24" width="1" height="1" fill="#FA6A0A" />
<rect x="28" y="24" width="1" height="1" fill="#FA6A0A" />
<rect x="29" y="24" width="1" height="1" fill="#FA6A0A" />
<rect x="30" y="24" width="1" height="1" fill="#FA6A0A" />
<rect x="31" y="24" width="1" height="1" fill="#FA6A0A" />
<rect x="32" y="24" width="1" height="1" fill="#FA6A0A" />
<rect x="33" y="24" width="1" height="1" fill="#FA6A0A" />
<rect x="34" y="24" width="1" height="1" fill="#FA6A0A" />
<rect x="35" y="24" width="1" height="1" fill="#FA6A0A" />
<rect x="36" y="24" width="1" height="1" fill="#FA6A0A" />
<rect x="38" y="24" width="1" height="1" fill="#FA6A0A" />
<rect x="39" y="24" width="1" height="1" fill="#FA6A0A" />
<rect x="24" y="25" width="1" height="1" fill="#FA6A0A" />
<rect x="25" y="25" width="1" height="1" fill="#FA6A0A" />
<rect x="27" y="25" width="1" height="1" fill="#FA6A0A" />
<rect x="28" y="25" width="1" height="1" fill="#FA6A0A" />
<rect x="29" y="25" width="1" height="1" fill="#FA6A0A" />
<rect x="30" y="25" width="1" height="1" fill="#FA6A0A" />
<rect x="31" y="25" width="1" height="1" fill="#FA6A0A" />
<rect x="32" y="25" width="1" height="1" fill="#FA6A0A" />
<rect x="33" y="25" width="1" height="1" fill="#FA6A0A" />
<rect x="34" y="25" width="1" height="1" fill="#FA6A0A" />
<rect x="35" y="25" width="1" height="1" fill="#FA6A0A" />
<rect x="36" y="25" width="1" height="1" fill="#FA6A0A" />
<rect x="38" y="25" width="1" height="1" fill="#FA6A0A" />
<rect x="39" y="25" width="1" height="1" fill="#FA6A0A" />
<rect x="24" y="26" width="1" height="1" fill="#FA6A0A" />
<rect x="25" y="26" width="1" height="1" fill="#FA6A0A" />
<rect x="27" y="26" width="1" height="1" fill="#FA6A0A" />
<rect x="28" y="26" width="1" height="1" fill="#FA6A0A" />
<rect x="29" y="26" width="1" height="1" fill="#FA6A0A" />
<rect x="30" y="26" width="1" height="1" fill="#FA6A0A" />
<rect x="31" y="26" width="1" height="1" fill="#FA6A0A" />
<rect x="32" y="26" width="1" height="1" fill="#FA6A0A" />
<rect x="33" y="26" width="1" height="1" fill="#FA6A0A" />
<rect x="34" y="26" width="1" height="1" fill="#FA6A0A" />
<rect x="35" y="26" width="1" height="1" fill="#FA6A0A" />
<rect x="36" y="26" width="1" height="1" fill="#FA6A0A" />
<rect x="38" y="26" width="1" height="1" fill="#FA6A0A" />
<rect x="39" y="26" width="1" height="1" fill="#FA6A0A" />
<rect x="24" y="27" width="1" height="1" fill="#FA6A0A" />
<rect x="25" y="27" width="1" height="1" fill="#FA6A0A" />
<rect x="27" y="27" width="1" height="1" fill="#FA6A0A" />
<rect x="28" y="27" width="1" height="1" fill="#FA6A0A" />
<rect x="29" y="27" width="1" height="1" fill="#FA6A0A" />
<rect x="30" y="27" width="1" height="1" fill="#FA6A0A" />
<rect x="31" y="27" width="1" height="1" fill="#FA6A0A" />
<rect x="32" y="27" width="1" height="1" fill="#FA6A0A" />
<rect x="33" y="27" width="1" height="1" fill="#FA6A0A" />
<rect x="34" y="27" width="1" height="1" fill="#FA6A0A" />
<rect x="35" y="27" width="1" height="1" fill="#FA6A0A" />
<rect x="36" y="27" width="1" height="1" fill="#FA6A0A" />
<rect x="38" y="27" width="1" height="1" fill="#FA6A0A" />
<rect x="39" y="27" width="1" height="1" fill="#FA6A0A" />
<rect x="24" y="28" width="1" height="1" fill="#FA6A0A" />
<rect x="25" y="28" width="1" height="1" fill="#FA6A0A" />
<rect x="27" y="28" width="1" height="1" fill="#FA6A0A" />
<rect x="28" y="28" width="1" height="1" fill="#FA6A0A" />
<rect x="29" y="28" width="1" height="1" fill="#FA6A0A" />
<rect x="30" y="28" width="1" height="1" fill="#FA6A0A" />
<rect x="31" y="28" width="1" height="1" fill="#FA6A0A" />
<rect x="32" y="28" width="1" height="1" fill="#FA6A0A" />
<rect x="33" y="28" width="1" height="1" fill="#FA6A0A" />
<rect x="34" y="28" width="1" height="1" fill="#FA6A0A" />
<rect x="35" y="28" width="1" height="1" fill="#FA6A0A" />
<rect x="36" y="28" width="1" height="1" fill="#FA6A0A" />
<rect x="38" y="28" width="1" height="1" fill="#FA6A0A" />
<rect x="39" y="28" width="1" height="1" fill="#FA6A0A" />
<rect x="24" y="29" width="1" height="1" fill="#FA6A0A" />
<rect x="25" y="29" width="1" height="1" fill="#FA6A0A" />
<rect x="27" y="29" width="1" height="1" fill="#FA6A0A" />
<rect x="28" y="29" width="1" height="1" fill="#FA6A0A" />
<rect x="29" y="29" width="1" height="1" fill="#FA6A0A" />
<rect x="30" y="29" width="1" height="1" fill="#FA6A0A" />
<rect x="31" y="29" width="1" height="1" fill="#FA6A0A" />
<rect x="32" y="29" width="1" height="1" fill="#FA6A0A" />
<rect x="33" y="29" width="1" height="1" fill="#FA6A0A" />
<rect x="34" y="29" width="1" height="1" fill="#FA6A0A" />
<rect x="35" y="29" width="1" height="1" fill="#FA6A0A" />
<rect x="36" y="29" width="1" height="1" fill="#FA6A0A" />
<rect x="38" y="29" width="1" height="1" fill="#FA6A0A" />
<rect x="39" y="29" width="1" height="1" fill="#FA6A0A" />
<rect x="24" y="30" width="1" height="1" fill="#FA6A0A" />
<rect x="25" y="30" width="1" height="1" fill="#FA6A0A" />
<rect x="27" y="30" width="1" height="1" fill="#FA6A0A" />
<rect x="28" y="30" width="1" height="1" fill="#FA6A0A" />
<rect x="29" y="30" width="1" height="1" fill="#FA6A0A" />
<rect x="30" y="30" width="1" height="1" fill="#FA6A0A" />
<rect x="31" y="30" width="1" height="1" fill="#FA6A0A" />
<rect x="32" y="30" width="1" height="1" fill="#FA6A0A" />
<rect x="33" y="30" width="1" height="1" fill="#FA6A0A" />
<rect x="34" y="30" width="1" height="1" fill="#FA6A0A" />
<rect x="35" y="30" width="1" height="1" fill="#FA6A0A" />
<rect x="36" y="30" width="1" height="1" fill="#FA6A0A" />
<rect x="38" y="30" width="1" height="1" fill="#FA6A0A" />
<rect x="39" y="30" width="1" height="1" fill="#FA6A0A" />
<rect x="24" y="31" width="1" height="1" fill="#FA6A0A" />
<rect x="25" y="31" width="1" height="1" fill="#FA6A0A" />
<rect x="27" y="31" width="1" height="1" fill="#FA6A0A" />
<rect x="28" y="31" width="1" height="1" fill="#FA6A0A" />
<rect x="29" y="31" width="1" height="1" fill="#FA6A0A" />
<rect x="30" y="31" width="1" height="1" fill="#FA6A0A" />
<rect x="31" y="31" width="1" height="1" fill="#FA6A0A" />
<rect x="32" y="31" width="1" height="1" fill="#FA6A0A" />
<rect x="33" y="31" width="1" height="1" fill="#FA6A0A" />
<rect x="34" y="31" width="1" height="1" fill="#FA6A0A" />
<rect x="35" y="31" width="1" height="1" fill="#FA6A0A" />
<rect x="36" y="31" width="1" height="1" fill="#FA6A0A" />
<rect x="38" y="31" width="1" height="1" fill="#FA6A0A" />
<rect x="39" y="31" width="1" height="1" fill="#FA6A0A" />
<rect x="27" y="32" width="1" height="1" fill="#FA6A0A" />
<rect x="28" y="32" width="1" height="1" fill="#FA6A0A" />
<rect x="29" y="32" width="1" height="1" fill="#FA6A0A" />
<rect x="34" y="32" width="1" height="1" fill="#FA6A0A" />
<rect x="35" y="32" width="1" height="1" fill="#FA6A0A" />
<rect x="36" y="32" width="1" height="1" fill="#FA6A0A" />
<rect x="27" y="33" width="1" height="1" fill="#FA6A0A" />
<rect x="28" y="33" width="1" height="1" fill="#FA6A0A" />
<rect x="29" y="33" width="1" height="1" fill="#FA6A0A" />
<rect x="34" y="33" width="1" height="1" fill="#FA6A0A" />
<rect x="35" y="33" width="1" height="1" fill="#FA6A0A" />
<rect x="36" y="33" width="1" height="1" fill="#FA6A0A" />
<rect x="27" y="34" width="1" height="1" fill="#FA6A0A" />
<rect x="28" y="34" width="1" height="1" fill="#FA6A0A" />
<rect x="29" y="34" width="1" height="1" fill="#FA6A0A" />
<rect x="34" y="34" width="1" height="1" fill="#FA6A0A" />
<rect x="35" y="34" width="1" height="1" fill="#FA6A0A" />
<rect x="36" y="34" width="1" height="1" fill="#FA6A0A" />
<rect x="27" y="35" width="1" height="1" fill="#FA6A0A" />
<rect x="28" y="35" width="1" height="1" fill="#FA6A0A" />
<rect x="29" y="35" width="1" height="1" fill="#FA6A0A" />
<rect x="34" y="35" width="1" height="1" fill="#FA6A0A" />
<rect x="35" y="35" width="1" height="1" fill="#FA6A0A" />
<rect x="36" y="35" width="1" height="1" fill="#FA6A0A" />
<rect x="27" y="36" width="1" height="1" fill="#FA6A0A" />
<rect x="28" y="36" width="1" height="1" fill="#FA6A0A" />
<rect x="29" y="36" width="1" height="1" fill="#FA6A0A" />
<rect x="34" y="36" width="1" height="1" fill="#FA6A0A" />
<rect x="35" y="36" width="1" height="1" fill="#FA6A0A" />
<rect x="36" y="36" width="1" height="1" fill="#FA6A0A" />
<rect x="27" y="37" width="1" height="1" fill="#FA6A0A" />
<rect x="28" y="37" width="1" height="1" fill="#FA6A0A" />
<rect x="29" y="37" width="1" height="1" fill="#FA6A0A" />
<rect x="34" y="37" width="1" height="1" fill="#FA6A0A" />
<rect x="35" y="37" width="1" height="1" fill="#FA6A0A" />
<rect x="36" y="37" width="1" height="1" fill="#FA6A0A" />
<rect x="27" y="38" width="1" height="1" fill="#FA6A0A" />
<rect x="28" y="38" width="1" height="1" fill="#FA6A0A" />
<rect x="29" y="38" width="1" height="1" fill="#FA6A0A" />
<rect x="34" y="38" width="1" height="1" fill="#FA6A0A" />
<rect x="35" y="38" width="1" height="1" fill="#FA6A0A" />
<rect x="36" y="38" width="1" height="1" fill="#FA6A0A" />
<rect x="27" y="39" width="1" height="1" fill="#FA6A0A" />
<rect x="28" y="39" width="1" height="1" fill="#FA6A0A" />
<rect x="29" y="39" width="1" height="1" fill="#FA6A0A" />
<rect x="34" y="39" width="1" height="1" fill="#FA6A0A" />
<rect x="35" y="39" width="1" height="1" fill="#FA6A0A" />
<rect x="36" y="39" width="1" height="1" fill="#FA6A0A" />
<rect x="27" y="40" width="1" height="1" fill="#FA6A0A" />
<rect x="28" y="40" width="1" height="1" fill="#FA6A0A" />
<rect x="29" y="40" width="1" height="1" fill="#FA6A0A" />
<rect x="34" y="40" width="1" height="1" fill="#FA6A0A" />
<rect x="35" y="40" width="1" height="1" fill="#FA6A0A" />
<rect x="36" y="40" width="1" height="1" fill="#FA6A0A" />
<rect x="27" y="41" width="1" height="1" fill="#FA6A0A" />
<rect x="28" y="41" width="1" height="1" fill="#FA6A0A" />
<rect x="29" y="41" width="1" height="1" fill="#FA6A0A" />
<rect x="34" y="41" width="1" height="1" fill="#FA6A0A" />
<rect x="35" y="41" width="1" height="1" fill="#FA6A0A" />
<rect x="36" y="41" width="1" height="1" fill="#FA6A0A" />
<rect x="27" y="42" width="1" height="1" fill="#FA6A0A" />
<rect x="28" y="42" width="1" height="1" fill="#FA6A0A" />
<rect x="29" y="42" width="1" height="1" fill="#FA6A0A" />
<rect x="34" y="42" width="1" height="1" fill="#FA6A0A" />
<rect x="35" y="42" width="1" height="1" fill="#FA6A0A" />
<rect x="36" y="42" width="1" height="1" fill="#FA6A0A" />
<rect x="10" y="43" width="1" height="1" fill="#322B28" />
<rect x="15" y="43" width="1" height="1" fill="#322B28" />
<rect x="18" y="43" width="1" height="1" fill="#322B28" />
<rect x="27" y="43" width="1" height="1" fill="#FA6A0A" />
<rect x="28" y="43" width="1" height="1" fill="#FA6A0A" />
<rect x="29" y="43" width="1" height="1" fill="#FA6A0A" />
<rect x="34" y="43" width="1" height="1" fill="#FA6A0A" />
<rect x="35" y="43" width="1" height="1" fill="#FA6A0A" />
<rect x="36" y="43" width="1" height="1" fill="#FA6A0A" />
<rect x="10" y="44" width="1" height="1" fill="#322B28" />
<rect x="18" y="44" width="1" height="1" fill="#322B28" />
<rect x="10" y="45" width="1" height="1" fill="#322B28" />
<rect x="18" y="45" width="1" height="1" fill="#322B28" />
<rect x="10" y="46" width="1" height="1" fill="#322B28" />
<rect x="11" y="46" width="1" height="1" fill="#322B28" />
<rect x="12" y="46" width="1" height="1" fill="#322B28" />
<rect x="15" y="46" width="1" height="1" fill="#322B28" />
<rect x="17" y="46" width="1" height="1" fill="#322B28" />
<rect x="18" y="46" width="1" height="1" fill="#322B28" />
<rect x="19" y="46" width="1" height="1" fill="#322B28" />
<rect x="21" y="46" width="1" height="1" fill="#322B28" />
<rect x="22" y="46" width="1" height="1" fill="#322B28" />
<rect x="24" y="46" width="1" height="1" fill="#322B28" />
<rect x="25" y="46" width="1" height="1" fill="#322B28" />
<rect x="28" y="46" width="1" height="1" fill="#322B28" />
<rect x="29" y="46" width="1" height="1" fill="#322B28" />
<rect x="33" y="46" width="1" height="1" fill="#322B28" />
<rect x="34" y="46" width="1" height="1" fill="#322B28" />
<rect x="35" y="46" width="1" height="1" fill="#322B28" />
<rect x="38" y="46" width="1" height="1" fill="#322B28" />
<rect x="39" y="46" width="1" height="1" fill="#322B28" />
<rect x="41" y="46" width="1" height="1" fill="#322B28" />
<rect x="42" y="46" width="1" height="1" fill="#322B28" />
<rect x="45" y="46" width="1" height="1" fill="#322B28" />
<rect x="46" y="46" width="1" height="1" fill="#322B28" />
<rect x="50" y="46" width="1" height="1" fill="#322B28" />
<rect x="51" y="46" width="1" height="1" fill="#322B28" />
<rect x="52" y="46" width="1" height="1" fill="#322B28" />
<rect x="10" y="47" width="1" height="1" fill="#322B28" />
<rect x="13" y="47" width="1" height="1" fill="#322B28" />
<rect x="15" y="47" width="1" height="1" fill="#322B28" />
<rect x="18" y="47" width="1" height="1" fill="#322B28" />
<rect x="21" y="47" width="1" height="1" fill="#322B28" />
<rect x="23" y="47" width="1" height="1" fill="#322B28" />
<rect x="25" y="47" width="1" height="1" fill="#322B28" />
<rect x="27" y="47" width="1" height="1" fill="#322B28" />
<rect x="30" y="47" width="1" height="1" fill="#322B28" />
<rect x="33" y="47" width="1" height="1" fill="#322B28" />
<rect x="36" y="47" width="1" height="1" fill="#322B28" />
<rect x="38" y="47" width="1" height="1" fill="#322B28" />
<rect x="40" y="47" width="1" height="1" fill="#322B28" />
<rect x="42" y="47" width="1" height="1" fill="#322B28" />
<rect x="44" y="47" width="1" height="1" fill="#322B28" />
<rect x="47" y="47" width="1" height="1" fill="#322B28" />
<rect x="50" y="47" width="1" height="1" fill="#322B28" />
<rect x="53" y="47" width="1" height="1" fill="#322B28" />
<rect x="10" y="48" width="1" height="1" fill="#322B28" />
<rect x="13" y="48" width="1" height="1" fill="#322B28" />
<rect x="15" y="48" width="1" height="1" fill="#322B28" />
<rect x="18" y="48" width="1" height="1" fill="#322B28" />
<rect x="21" y="48" width="1" height="1" fill="#322B28" />
<rect x="23" y="48" width="1" height="1" fill="#322B28" />
<rect x="25" y="48" width="1" height="1" fill="#322B28" />
<rect x="27" y="48" width="1" height="1" fill="#322B28" />
<rect x="30" y="48" width="1" height="1" fill="#322B28" />
<rect x="33" y="48" width="1" height="1" fill="#322B28" />
<rect x="36" y="48" width="1" height="1" fill="#322B28" />
<rect x="38" y="48" width="1" height="1" fill="#322B28" />
<rect x="40" y="48" width="1" height="1" fill="#322B28" />
<rect x="42" y="48" width="1" height="1" fill="#322B28" />
<rect x="44" y="48" width="1" height="1" fill="#322B28" />
<rect x="47" y="48" width="1" height="1" fill="#322B28" />
<rect x="50" y="48" width="1" height="1" fill="#322B28" />
<rect x="53" y="48" width="1" height="1" fill="#322B28" />
<rect x="10" y="49" width="1" height="1" fill="#322B28" />
<rect x="13" y="49" width="1" height="1" fill="#322B28" />
<rect x="15" y="49" width="1" height="1" fill="#322B28" />
<rect x="18" y="49" width="1" height="1" fill="#322B28" />
<rect x="21" y="49" width="1" height="1" fill="#322B28" />
<rect x="25" y="49" width="1" height="1" fill="#322B28" />
<rect x="27" y="49" width="1" height="1" fill="#322B28" />
<rect x="30" y="49" width="1" height="1" fill="#322B28" />
<rect x="33" y="49" width="1" height="1" fill="#322B28" />
<rect x="36" y="49" width="1" height="1" fill="#322B28" />
<rect x="38" y="49" width="1" height="1" fill="#322B28" />
<rect x="42" y="49" width="1" height="1" fill="#322B28" />
<rect x="44" y="49" width="1" height="1" fill="#322B28" />
<rect x="47" y="49" width="1" height="1" fill="#322B28" />
<rect x="50" y="49" width="1" height="1" fill="#322B28" />
<rect x="53" y="49" width="1" height="1" fill="#322B28" />
<rect x="10" y="50" width="1" height="1" fill="#322B28" />
<rect x="11" y="50" width="1" height="1" fill="#322B28" />
<rect x="12" y="50" width="1" height="1" fill="#322B28" />
<rect x="15" y="50" width="1" height="1" fill="#322B28" />
<rect x="18" y="50" width="1" height="1" fill="#322B28" />
<rect x="19" y="50" width="1" height="1" fill="#322B28" />
<rect x="21" y="50" width="1" height="1" fill="#322B28" />
<rect x="25" y="50" width="1" height="1" fill="#322B28" />
<rect x="28" y="50" width="1" height="1" fill="#322B28" />
<rect x="29" y="50" width="1" height="1" fill="#322B28" />
<rect x="31" y="50" width="1" height="1" fill="#322B28" />
<rect x="33" y="50" width="1" height="1" fill="#322B28" />
<rect x="34" y="50" width="1" height="1" fill="#322B28" />
<rect x="35" y="50" width="1" height="1" fill="#322B28" />
<rect x="38" y="50" width="1" height="1" fill="#322B28" />
<rect x="42" y="50" width="1" height="1" fill="#322B28" />
<rect x="45" y="50" width="1" height="1" fill="#322B28" />
<rect x="46" y="50" width="1" height="1" fill="#322B28" />
<rect x="48" y="50" width="1" height="1" fill="#322B28" />
<rect x="50" y="50" width="1" height="1" fill="#322B28" />
<rect x="53" y="50" width="1" height="1" fill="#322B28" />
<rect x="33" y="51" width="1" height="1" fill="#322B28" />
<rect x="33" y="52" width="1" height="1" fill="#322B28" />
<rect x="33" y="53" width="1" height="1" fill="#322B28" />
</svg>