<?xml version="1.0" encoding="UTF-8" ?>
<svg version="1.1" width="48" height="48" xmlns="http://www.w3.org/2000/svg" shape-rendering="crispEdges">
<rect x="20" y="2" width="1" height="1" fill="#FA6A0A" />
<rect x="21" y="2" width="1" height="1" fill="#FA6A0A" />
<rect x="22" y="2" width="1" height="1" fill="#FA6A0A" />
<rect x="23" y="2" width="1" height="1" fill="#FA6A0A" />
<rect x="24" y="2" width="1" height="1" fill="#FA6A0A" />
<rect x="25" y="2" width="1" height="1" fill="#FA6A0A" />
<rect x="26" y="2" width="1" height="1" fill="#FA6A0A" />
<rect x="27" y="2" width="1" height="1" fill="#FA6A0A" />
<rect x="19" y="3" width="1" height="1" fill="#FA6A0A" />
<rect x="20" y="3" width="1" height="1" fill="#FA6A0A" />
<rect x="21" y="3" width="1" height="1" fill="#FA6A0A" />
<rect x="22" y="3" width="1" height="1" fill="#FA6A0A" />
<rect x="23" y="3" width="1" height="1" fill="#FA6A0A" />
<rect x="24" y="3" width="1" height="1" fill="#FA6A0A" />
<rect x="25" y="3" width="1" height="1" fill="#FA6A0A" />
<rect x="26" y="3" width="1" height="1" fill="#FA6A0A" />
<rect x="27" y="3" width="1" height="1" fill="#FA6A0A" />
<rect x="28" y="3" width="1" height="1" fill="#FA6A0A" />
<rect x="19" y="4" width="1" height="1" fill="#FA6A0A" />
<rect x="20" y="4" width="1" height="1" fill="#FA6A0A" />
<rect x="21" y="4" width="1" height="1" fill="#FA6A0A" />
<rect x="22" y="4" width="1" height="1" fill="#FA6A0A" />
<rect x="23" y="4" width="1" height="1" fill="#FA6A0A" />
<rect x="24" y="4" width="1" height="1" fill="#FA6A0A" />
<rect x="25" y="4" width="1" height="1" fill="#FA6A0A" />
<rect x="26" y="4" width="1" height="1" fill="#FA6A0A" />
<rect x="27" y="4" width="1" height="1" fill="#FA6A0A" />
<rect x="28" y="4" width="1" height="1" fill="#FA6A0A" />
<rect x="19" y="5" width="1" height="1" fill="#FA6A0A" />
<rect x="20" y="5" width="1" height="1" fill="#FA6A0A" />
<rect x="21" y="5" width="1" height="1" fill="#FA6A0A" />
<rect x="22" y="5" width="1" height="1" fill="#FA6A0A" />
<rect x="23" y="5" width="1" height="1" fill="#FA6A0A" />
<rect x="24" y="5" width="1" height="1" fill="#FA6A0A" />
<rect x="25" y="5" width="1" height="1" fill="#FA6A0A" />
<rect x="26" y="5" width="1" height="1" fill="#FA6A0A" />
<rect x="27" y="5" width="1" height="1" fill="#FA6A0A" />
<rect x="28" y="5" width="1" height="1" fill="#FA6A0A" />
<rect x="19" y="6" width="1" height="1" fill="#FA6A0A" />
<rect x="20" y="6" width="1" height="1" fill="#FA6A0A" />
<rect x="21" y="6" width="1" height="1" fill="#FA6A0A" />
<rect x="22" y="6" width="1" height="1" fill="#FA6A0A" />
<rect x="23" y="6" width="1" height="1" fill="#FA6A0A" />
<rect x="24" y="6" width="1" height="1" fill="#FA6A0A" />
<rect x="25" y="6" width="1" height="1" fill="#FA6A0A" />
<rect x="26" y="6" width="1" height="1" fill="#FA6A0A" />
<rect x="27" y="6" width="1" height="1" fill="#FA6A0A" />
<rect x="28" y="6" width="1" height="1" fill="#FA6A0A" />
<rect x="19" y="7" width="1" height="1" fill="#FA6A0A" />
<rect x="20" y="7" width="1" height="1" fill="#FA6A0A" />
<rect x="21" y="7" width="1" height="1" fill="#FA6A0A" />
<rect x="22" y="7" width="1" height="1" fill="#FA6A0A" />
<rect x="23" y="7" width="1" height="1" fill="#FA6A0A" />
<rect x="24" y="7" width="1" height="1" fill="#FA6A0A" />
<rect x="25" y="7" width="1" height="1" fill="#FA6A0A" />
<rect x="26" y="7" width="1" height="1" fill="#FA6A0A" />
<rect x="27" y="7" width="1" height="1" fill="#FA6A0A" />
<rect x="28" y="7" width="1" height="1" fill="#FA6A0A" />
<rect x="19" y="8" width="1" height="1" fill="#FA6A0A" />
<rect x="20" y="8" width="1" height="1" fill="#FA6A0A" />
<rect x="21" y="8" width="1" height="1" fill="#FA6A0A" />
<rect x="22" y="8" width="1" height="1" fill="#FA6A0A" />
<rect x="23" y="8" width="1" height="1" fill="#FA6A0A" />
<rect x="24" y="8" width="1" height="1" fill="#FA6A0A" />
<rect x="25" y="8" width="1" height="1" fill="#FA6A0A" />
<rect x="26" y="8" width="1" height="1" fill="#FA6A0A" />
<rect x="27" y="8" width="1" height="1" fill="#FA6A0A" />
<rect x="28" y="8" width="1" height="1" fill="#FA6A0A" />
<rect x="19" y="9" width="1" height="1" fill="#FA6A0A" />
<rect x="20" y="9" width="1" height="1" fill="#FA6A0A" />
<rect x="21" y="9" width="1" height="1" fill="#FA6A0A" />
<rect x="22" y="9" width="1" height="1" fill="#FA6A0A" />
<rect x="23" y="9" width="1" height="1" fill="#FA6A0A" />
<rect x="24" y="9" width="1" height="1" fill="#FA6A0A" />
<rect x="25" y="9" width="1" height="1" fill="#FA6A0A" />
<rect x="26" y="9" width="1" height="1" fill="#FA6A0A" />
<rect x="27" y="9" width="1" height="1" fill="#FA6A0A" />
<rect x="28" y="9" width="1" height="1" fill="#FA6A0A" />
<rect x="20" y="10" width="1" height="1" fill="#FA6A0A" />
<rect x="21" y="10" width="1" height="1" fill="#FA6A0A" />
<rect x="22" y="10" width="1" height="1" fill="#FA6A0A" />
<rect x="23" y="10" width="1" height="1" fill="#FA6A0A" />
<rect x="24" y="10" width="1" height="1" fill="#FA6A0A" />
<rect x="25" y="10" width="1" height="1" fill="#FA6A0A" />
<rect x="26" y="10" width="1" height="1" fill="#FA6A0A" />
<rect x="27" y="10" width="1" height="1" fill="#FA6A0A" />
<rect x="21" y="11" width="1" height="1" fill="#FA6A0A" />
<rect x="22" y="11" width="1" height="1" fill="#FA6A0A" />
<rect x="23" y="11" width="1" height="1" fill="#FA6A0A" />
<rect x="24" y="11" width="1" height="1" fill="#FA6A0A" />
<rect x="25" y="11" width="1" height="1" fill="#FA6A0A" />
<rect x="26" y="11" width="1" height="1" fill="#FA6A0A" />
<rect x="19" y="12" width="1" height="1" fill="#FA6A0A" />
<rect x="20" y="12" width="1" height="1" fill="#FA6A0A" />
<rect x="21" y="12" width="1" height="1" fill="#FA6A0A" />
<rect x="22" y="12" width="1" height="1" fill="#FA6A0A" />
<rect x="23" y="12" width="1" height="1" fill="#FA6A0A" />
<rect x="24" y="12" width="1" height="1" fill="#FA6A0A" />
<rect x="25" y="12" width="1" height="1" fill="#FA6A0A" />
<rect x="26" y="12" width="1" height="1" fill="#FA6A0A" />
<rect x="27" y="12" width="1" height="1" fill="#FA6A0A" />
<rect x="28" y="12" width="1" height="1" fill="#FA6A0A" />
<rect x="17" y="13" width="1" height="1" fill="#FA6A0A" />
<rect x="18" y="13" width="1" height="1" fill="#FA6A0A" />
<rect x="19" y="13" width="1" height="1" fill="#FA6A0A" />
<rect x="20" y="13" width="1" height="1" fill="#FA6A0A" />
<rect x="21" y="13" width="1" height="1" fill="#FA6A0A" />
<rect x="22" y="13" width="1" height="1" fill="#FA6A0A" />
<rect x="23" y="13" width="1" height="1" fill="#FA6A0A" />
<rect x="24" y="13" width="1" height="1" fill="#FA6A0A" />
<rect x="25" y="13" width="1" height="1" fill="#FA6A0A" />
<rect x="26" y="13" width="1" height="1" fill="#FA6A0A" />
<rect x="27" y="13" width="1" height="1" fill="#FA6A0A" />
<rect x="28" y="13" width="1" height="1" fill="#FA6A0A" />
<rect x="29" y="13" width="1" height="1" fill="#FA6A0A" />
<rect x="30" y="13" width="1" height="1" fill="#FA6A0A" />
<rect x="16" y="14" width="1" height="1" fill="#FA6A0A" />
<rect x="17" y="14" width="1" height="1" fill="#FA6A0A" />
<rect x="18" y="14" width="1" height="1" fill="#FA6A0A" />
<rect x="19" y="14" width="1" height="1" fill="#FA6A0A" />
<rect x="20" y="14" width="1" height="1" fill="#FA6A0A" />
<rect x="21" y="14" width="1" height="1" fill="#FA6A0A" />
<rect x="22" y="14" width="1" height="1" fill="#FA6A0A" />
<rect x="23" y="14" width="1" height="1" fill="#FA6A0A" />
<rect x="24" y="14" width="1" height="1" fill="#FA6A0A" />
<rect x="25" y="14" width="1" height="1" fill="#FA6A0A" />
<rect x="26" y="14" width="1" height="1" fill="#FA6A0A" />
<rect x="27" y="14" width="1" height="1" fill="#FA6A0A" />
<rect x="28" y="14" width="1" height="1" fill="#FA6A0A" />
<rect x="29" y="14" width="1" height="1" fill="#FA6A0A" />
<rect x="30" y="14" width="1" height="1" fill="#FA6A0A" />
<rect x="31" y="14" width="1" height="1" fill="#FA6A0A" />
<rect x="16" y="15" width="1" height="1" fill="#FA6A0A" />
<rect x="17" y="15" width="1" height="1" fill="#FA6A0A" />
<rect x="19" y="15" width="1" height="1" fill="#FA6A0A" />
<rect x="20" y="15" width="1" height="1" fill="#FA6A0A" />
<rect x="21" y="15" width="1" height="1" fill="#FA6A0A" />
<rect x="22" y="15" width="1" height="1" fill="#FA6A0A" />
<rect x="23" y="15" width="1" height="1" fill="#FA6A0A" />
<rect x="24" y="15" width="1" height="1" fill="#FA6A0A" />
<rect x="25" y="15" width="1" height="1" fill="#FA6A0A" />
<rect x="26" y="15" width="1" height="1" fill="#FA6A0A" />
<rect x="27" y="15" width="1" height="1" fill="#FA6A0A" />
<rect x="28" y="15" width="1" height="1" fill="#FA6A0A" />
<rect x="30" y="15" width="1" height="1" fill="#FA6A0A" />
<rect x="31" y="15" width="1" height="1" fill="#FA6A0A" />
<rect x="16" y="16" width="1" height="1" fill="#FA6A0A" />
<rect x="17" y="16" width="1" height="1" fill="#FA6A0A" />
<rect x="19" y="16" width="1" height="1" fill="#FA6A0A" />
<rect x="20" y="16" width="1" height="1" fill="#FA6A0A" />
<rect x="21" y="16" width="1" height="1" fill="#FA6A0A" />
<rect x="22" y="16" width="1" height="1" fill="#FA6A0A" />
<rect x="23" y="16" width="1" height="1" fill="#FA6A0A" />
<rect x="24" y="16" width="1" height="1" fill="#FA6A0A" />
<rect x="25" y="16" width="1" height="1" fill="#FA6A0A" />
<rect x="26" y="16" width="1" height="1" fill="#FA6A0A" />
<rect x="27" y="16" width="1" height="1" fill="#FA6A0A" />
<rect x="28" y="16" width="1" height="1" fill="#FA6A0A" />
<rect x="30" y="16" width="1" height="1" fill="#FA6A0A" />
<rect x="31" y="16" width="1" height="1" fill="#FA6A0A" />
<rect x="16" y="17" width="1" height="1" fill="#FA6A0A" />
<rect x="17" y="17" width="1" height="1" fill="#FA6A0A" />
<rect x="19" y="17" width="1" height="1" fill="#FA6A0A" />
<rect x="20" y="17" width="1" height="1" fill="#FA6A0A" />
<rect x="21" y="17" width="1" height="1" fill="#FA6A0A" />
<rect x="22" y="17" width="1" height="1" fill="#FA6A0A" />
<rect x="23" y="17" width="1" height="1" fill="#FA6A0A" />
<rect x="24" y="17" width="1" height="1" fill="#FA6A0A" />
<rect x="25" y="17" width="1" height="1" fill="#FA6A0A" />
<rect x="26" y="17" width="1" height="1" fill="#FA6A0A" />
<rect x="27" y="17" width="1" height="1" fill="#FA6A0A" />
<rect x="28" y="17" width="1" height="1" fill="#FA6A0A" />
<rect x="30" y="17" width="1" height="1" fill="#FA6A0A" />
<rect x="31" y="17" width="1" height="1" fill="#FA6A0A" />
<rect x="16" y="18" width="1" height="1" fill="#FA6A0A" />
<rect x="17" y="18" width="1" height="1" fill="#FA6A0A" />
<rect x="19" y="18" width="1" height="1" fill="#FA6A0A" />
<rect x="20" y="18" width="1" height="1" fill="#FA6A0A" />
<rect x="21" y="18" width="1" height="1" fill="#FA6A0A" />
<rect x="22" y="18" width="1" height="1" fill="#FA6A0A" />
<rect x="23" y="18" width="1" height="1" fill="#FA6A0A" />
<rect x="24" y="18" width="1" height="1" fill="#FA6A0A" />
<rect x="25" y="18" width="1" height="1" fill="#FA6A0A" />
<rect x="26" y="18" width="1" height="1" fill="#FA6A0A" />
<rect x="27" y="18" width="1" height="1" fill="#FA6A0A" />
<rect x="28" y="18" width="1" height="1" fill="#FA6A0A" />
<rect x="30" y="18" width="1" height="1" fill="#FA6A0A" />
<rect x="31" y="18" width="1" height="1" fill="#FA6A0A" />
<rect x="16" y="19" width="1" height="1" fill="#FA6A0A" />
<rect x="17" y="19" width="1" height="1" fill="#FA6A0A" />
<rect x="19" y="19" width="1" height="1" fill="#FA6A0A" />
<rect x="20" y="19" width="1" height="1" fill="#FA6A0A" />
<rect x="21" y="19" width="1" height="1" fill="#FA6A0A" />
<rect x="22" y="19" width="1" height="1" fill="#FA6A0A" />
<rect x="23" y="19" width="1" height="1" fill="#FA6A0A" />
<rect x="24" y="19" width="1" height="1" fill="#FA6A0A" />
<rect x="25" y="19" width="1" height="1" fill="#FA6A0A" />
<rect x="26" y="19" width="1" height="1" fill="#FA6A0A" />
<rect x="27" y="19" width="1" height="1" fill="#FA6A0A" />
<rect x="28" y="19" width="1" height="1" fill="#FA6A0A" />
<rect x="30" y="19" width="1" height="1" fill="#FA6A0A" />
<rect x="31" y="19" width="1" height="1" fill="#FA6A0A" />
<rect x="16" y="20" width="1" height="1" fill="#FA6A0A" />
<rect x="17" y="20" width="1" height="1" fill="#FA6A0A" />
<rect x="19" y="20" width="1" height="1" fill="#FA6A0A" />
<rect x="20" y="20" width="1" height="1" fill="#FA6A0A" />
<rect x="21" y="20" width="1" height="1" fill="#FA6A0A" />
<rect x="22" y="20" width="1" height="1" fill="#FA6A0A" />
<rect x="23" y="20" width="1" height="1" fill="#FA6A0A" />
<rect x="24" y="20" width="1" height="1" fill="#FA6A0A" />
<rect x="25" y="20" width="1" height="1" fill="#FA6A0A" />
<rect x="26" y="20" width="1" height="1" fill="#FA6A0A" />
<rect x="27" y="20" width="1" height="1" fill="#FA6A0A" />
<rect x="28" y="20" width="1" height="1" fill="#FA6A0A" />
<rect x="30" y="20" width="1" height="1" fill="#FA6A0A" />
<rect x="31" y="20" width="1" height="1" fill="#FA6A0A" />
<rect x="16" y="21" width="1" height="1" fill="#FA6A0A" />
<rect x="17" y="21" width="1" height="1" fill="#FA6A0A" />
<rect x="19" y="21" width="1" height="1" fill="#FA6A0A" />
<rect x="20" y="21" width="1" height="1" fill="#FA6A0A" />
<rect x="21" y="21" width="1" height="1" fill="#FA6A0A" />
<rect x="22" y="21" width="1" height="1" fill="#FA6A0A" />
<rect x="23" y="21" width="1" height="1" fill="#FA6A0A" />
<rect x="24" y="21" width="1" height="1" fill="#FA6A0A" />
<rect x="25" y="21" width="1" height="1" fill="#FA6A0A" />
<rect x="26" y="21" width="1" height="1" fill="#FA6A0A" />
<rect x="27" y="21" width="1" height="1" fill="#FA6A0A" />
<rect x="28" y="21" width="1" height="1" fill="#FA6A0A" />
<rect x="30" y="21" width="1" height="1" fill="#FA6A0A" />
<rect x="31" y="21" width="1" height="1" fill="#FA6A0A" />
<rect x="16" y="22" width="1" height="1" fill="#FA6A0A" />
<rect x="17" y="22" width="1" height="1" fill="#FA6A0A" />
<rect x="19" y="22" width="1" height="1" fill="#FA6A0A" />
<rect x="20" y="22" width="1" height="1" fill="#FA6A0A" />
<rect x="21" y="22" width="1" height="1" fill="#FA6A0A" />
<rect x="22" y="22" width="1" height="1" fill="#FA6A0A" />
<rect x="23" y="22" width="1" height="1" fill="#FA6A0A" />
<rect x="24" y="22" width="1" height="1" fill="#FA6A0A" />
<rect x="25" y="22" width="1" height="1" fill="#FA6A0A" />
<rect x="26" y="22" width="1" height="1" fill="#FA6A0A" />
<rect x="27" y="22" width="1" height="1" fill="#FA6A0A" />
<rect x="28" y="22" width="1" height="1" fill="#FA6A0A" />
<rect x="30" y="22" width="1" height="1" fill="#FA6A0A" />
<rect x="31" y="22" width="1" height="1" fill="#FA6A0A" />
<rect x="16" y="23" width="1" height="1" fill="#FA6A0A" />
<rect x="17" y="23" width="1" height="1" fill="#FA6A0A" />
<rect x="19" y="23" width="1" height="1" fill="#FA6A0A" />
<rect x="20" y="23" width="1" height="1" fill="#FA6A0A" />
<rect x="21" y="23" width="1" height="1" fill="#FA6A0A" />
<rect x="22" y="23" width="1" height="1" fill="#FA6A0A" />
<rect x="23" y="23" width="1" height="1" fill="#FA6A0A" />
<rect x="24" y="23" width="1" height="1" fill="#FA6A0A" />
<rect x="25" y="23" width="1" height="1" fill="#FA6A0A" />
<rect x="26" y="23" width="1" height="1" fill="#FA6A0A" />
<rect x="27" y="23" width="1" height="1" fill="#FA6A0A" />
<rect x="28" y="23" width="1" height="1" fill="#FA6A0A" />
<rect x="30" y="23" width="1" height="1" fill="#FA6A0A" />
<rect x="31" y="23" width="1" height="1" fill="#FA6A0A" />
<rect x="19" y="24" width="1" height="1" fill="#FA6A0A" />
<rect x="20" y="24" width="1" height="1" fill="#FA6A0A" />
<rect x="21" y="24" width="1" height="1" fill="#FA6A0A" />
<rect x="26" y="24" width="1" height="1" fill="#FA6A0A" />
<rect x="27" y="24" width="1" height="1" fill="#FA6A0A" />
<rect x="28" y="24" width="1" height="1" fill="#FA6A0A" />
<rect x="19" y="25" width="1" height="1" fill="#FA6A0A" />
<rect x="20" y="25" width="1" height="1" fill="#FA6A0A" />
<rect x="21" y="25" width="1" height="1" fill="#FA6A0A" />
<rect x="26" y="25" width="1" height="1" fill="#FA6A0A" />
<rect x="27" y="25" width="1" height="1" fill="#FA6A0A" />
<rect x="28" y="25" width="1" height="1" fill="#FA6A0A" />
<rect x="19" y="26" width="1" height="1" fill="#FA6A0A" />
<rect x="20" y="26" width="1" height="1" fill="#FA6A0A" />
<rect x="21" y="26" width="1" height="1" fill="#FA6A0A" />
<rect x="26" y="26" width="1" height="1" fill="#FA6A0A" />
<rect x="27" y="26" width="1" height="1" fill="#FA6A0A" />
<rect x="28" y="26" width="1" height="1" fill="#FA6A0A" />
<rect x="19" y="27" width="1" height="1" fill="#FA6A0A" />
<rect x="20" y="27" width="1" height="1" fill="#FA6A0A" />
<rect x="21" y="27" width="1" height="1" fill="#FA6A0A" />
<rect x="26" y="27" width="1" height="1" fill="#FA6A0A" />
<rect x="27" y="27" width="1" height="1" fill="#FA6A0A" />
<rect x="28" y="27" width="1" height="1" fill="#FA6A0A" />
<rect x="19" y="28" width="1" height="1" fill="#FA6A0A" />
<rect x="20" y="28" width="1" height="1" fill="#FA6A0A" />
<rect x="21" y="28" width="1" height="1" fill="#FA6A0A" />
<rect x="26" y="28" width="1" height="1" fill="#FA6A0A" />
<rect x="27" y="28" width="1" height="1" fill="#FA6A0A" />
<rect x="28" y="28" width="1" height="1" fill="#FA6A0A" />
<rect x="19" y="29" width="1" height="1" fill="#FA6A0A" />
<rect x="20" y="29" width="1" height="1" fill="#FA6A0A" />
<rect x="21" y="29" width="1" height="1" fill="#FA6A0A" />
<rect x="26" y="29" width="1" height="1" fill="#FA6A0A" />
<rect x="27" y="29" width="1" height="1" fill="#FA6A0A" />
<rect x="28" y="29" width="1" height="1" fill="#FA6A0A" />
<rect x="19" y="30" width="1" height="1" fill="#FA6A0A" />
<rect x="20" y="30" width="1" height="1" fill="#FA6A0A" />
<rect x="21" y="30" width="1" height="1" fill="#FA6A0A" />
<rect x="26" y="30" width="1" height="1" fill="#FA6A0A" />
<rect x="27" y="30" width="1" height="1" fill="#FA6A0A" />
<rect x="28" y="30" width="1" height="1" fill="#FA6A0A" />
<rect x="19" y="31" width="1" height="1" fill="#FA6A0A" />
<rect x="20" y="31" width="1" height="1" fill="#FA6A0A" />
<rect x="21" y="31" width="1" height="1" fill="#FA6A0A" />
<rect x="26" y="31" width="1" height="1" fill="#FA6A0A" />
<rect x="27" y="31" width="1" height="1" fill="#FA6A0A" />
<rect x="28" y="31" width="1" height="1" fill="#FA6A0A" />
<rect x="19" y="32" width="1" height="1" fill="#FA6A0A" />
<rect x="20" y="32" width="1" height="1" fill="#FA6A0A" />
<rect x="21" y="32" width="1" height="1" fill="#FA6A0A" />
<rect x="26" y="32" width="1" height="1" fill="#FA6A0A" />
<rect x="27" y="32" width="1" height="1" fill="#FA6A0A" />
<rect x="28" y="32" width="1" height="1" fill="#FA6A0A" />
<rect x="19" y="33" width="1" height="1" fill="#FA6A0A" />
<rect x="20" y="33" width="1" height="1" fill="#FA6A0A" />
<rect x="21" y="33" width="1" height="1" fill="#FA6A0A" />
<rect x="26" y="33" width="1" height="1" fill="#FA6A0A" />
<rect x="27" y="33" width="1" height="1" fill="#FA6A0A" />
<rect x="28" y="33" width="1" height="1" fill="#FA6A0A" />
<rect x="19" y="34" width="1" height="1" fill="#FA6A0A" />
<rect x="20" y="34" width="1" height="1" fill="#FA6A0A" />
<rect x="21" y="34" width="1" height="1" fill="#FA6A0A" />
<rect x="26" y="34" width="1" height="1" fill="#FA6A0A" />
<rect x="27" y="34" width="1" height="1" fill="#FA6A0A" />
<rect x="28" y="34" width="1" height="1" fill="#FA6A0A" />
<rect x="2" y="35" width="1" height="1" fill="#322B28" />
<rect x="7" y="35" width="1" height="1" fill="#322B28" />
<rect x="10" y="35" width="1" height="1" fill="#322B28" />
<rect x="19" y="35" width="1" height="1" fill="#FA6A0A" />
<rect x="20" y="35" width="1" height="1" fill="#FA6A0A" />
<rect x="21" y="35" width="1" height="1" fill="#FA6A0A" />
<rect x="26" y="35" width="1" height="1" fill="#FA6A0A" />
<rect x="27" y="35" width="1" height="1" fill="#FA6A0A" />
<rect x="28" y="35" width="1" height="1" fill="#FA6A0A" />
<rect x="2" y="36" width="1" height="1" fill="#322B28" />
<rect x="10" y="36" width="1" height="1" fill="#322B28" />
<rect x="2" y="37" width="1" height="1" fill="#322B28" />
<rect x="10" y="37" width="1" height="1" fill="#322B28" />
<rect x="2" y="38" width="1" height="1" fill="#322B28" />
<rect x="3" y="38" width="1" height="1" fill="#322B28" />
<rect x="4" y="38" width="1" height="1" fill="#322B28" />
<rect x="7" y="38" width="1" height="1" fill="#322B28" />
<rect x="9" y="38" width="1" height="1" fill="#322B28" />
<rect x="10" y="38" width="1" height="1" fill="#322B28" />
<rect x="11" y="38" width="1" height="1" fill="#322B28" />
<rect x="13" y="38" width="1" height="1" fill="#322B28" />
<rect x="14" y="38" width="1" height="1" fill="#322B28" />
<rect x="16" y="38" width="1" height="1" fill="#322B28" />
<rect x="17" y="38" width="1" height="1" fill="#322B28" />
<rect x="20" y="38" width="1" height="1" fill="#322B28" />
<rect x="21" y="38" width="1" height="1" fill="#322B28" />
<rect x="25" y="38" width="1" height="1" fill="#322B28" />
<rect x="26" y="38" width="1" height="1" fill="#322B28" />
<rect x="27" y="38" width="1" height="1" fill="#322B28" />
<rect x="30" y="38" width="1" height="1" fill="#322B28" />
<rect x="31" y="38" width="1" height="1" fill="#322B28" />
<rect x="33" y="38" width="1" height="1" fill="#322B28" />
<rect x="34" y="38" width="1" height="1" fill="#322B28" />
<rect x="37" y="38" width="1" height="1" fill="#322B28" />
<rect x="38" y="38" width="1" height="1" fill="#322B28" />
<rect x="42" y="38" width="1" height="1" fill="#322B28" />
<rect x="43" y="38" width="1" height="1" fill="#322B28" />
<rect x="44" y="38" width="1" height="1" fill="#322B28" />
<rect x="2" y="39" width="1" height="1" fill="#322B28" />
<rect x="5" y="39" width="1" height="1" fill="#322B28" />
<rect x="7" y="39" width="1" height="1" fill="#322B28" />
<rect x="10" y="39" width="1" height="1" fill="#322B28" />
<rect x="13" y="39" width="1" height="1" fill="#322B28" />
<rect x="15" y="39" width="1" height="1" fill="#322B28" />
<rect x="17" y="39" width="1" height="1" fill="#322B28" />
<rect x="19" y="39" width="1" height="1" fill="#322B28" />
<rect x="22" y="39" width="1" height="1" fill="#322B28" />
<rect x="25" y="39" width="1" height="1" fill="#322B28" />
<rect x="28" y="39" width="1" height="1" fill="#322B28" />
<rect x="30" y="39" width="1" height="1" fill="#322B28" />
<rect x="32" y="39" width="1" height="1" fill="#322B28" />
<rect x="34" y="39" width="1" height="1" fill="#322B28" />
<rect x="36" y="39" width="1" height="1" fill="#322B28" />
<rect x="39" y="39" width="1" height="1" fill="#322B28" />
<rect x="42" y="39" width="1" height="1" fill="#322B28" />
<rect x="45" y="39" width="1" height="1" fill="#322B28" />
<rect x="2" y="40" width="1" height="1" fill="#322B28" />
<rect x="5" y="40" width="1" height="1" fill="#322B28" />
<rect x="7" y="40" width="1" height="1" fill="#322B28" />
<rect x="10" y="40" width="1" height="1" fill="#322B28" />
<rect x="13" y="40" width="1" height="1" fill="#322B28" />
<rect x="15" y="40" width="1" height="1" fill="#322B28" />
<rect x="17" y="40" width="1" height="1" fill="#322B28" />
<rect x="19" y="40" width="1" height="1" fill="#322B28" />
<rect x="22" y="40" width="1" height="1" fill="#322B28" />
<rect x="25" y="40" width="1" height="1" fill="#322B28" />
<rect x="28" y="40" width="1" height="1" fill="#322B28" />
<rect x="30" y="40" width="1" height="1" fill="#322B28" />
<rect x="32" y="40" width="1" height="1" fill="#322B28" />
<rect x="34" y="40" width="1" height="1" fill="#322B28" />
<rect x="36" y="40" width="1" height="1" fill="#322B28" />
<rect x="39" y="40" width="1" height="1" fill="#322B28" />
<rect x="42" y="40" width="1" height="1" fill="#322B28" />
<rect x="45" y="40" width="1" height="1" fill="#322B28" />
<rect x="2" y="41" width="1" height="1" fill="#322B28" />
<rect x="5" y="41" width="1" height="1" fill="#322B28" />
<rect x="7" y="41" width="1" height="1" fill="#322B28" />
<rect x="10" y="41" width="1" height="1" fill="#322B28" />
<rect x="13" y="41" width="1" height="1" fill="#322B28" />
<rect x="17" y="41" width="1" height="1" fill="#322B28" />
<rect x="19" y="41" width="1" height="1" fill="#322B28" />
<rect x="22" y="41" width="1" height="1" fill="#322B28" />
<rect x="25" y="41" width="1" height="1" fill="#322B28" />
<rect x="28" y="41" width="1" height="1" fill="#322B28" />
<rect x="30" y="41" width="1" height="1" fill="#322B28" />
<rect x="34" y="41" width="1" height="1" fill="#322B28" />
<rect x="36" y="41" width="1" height="1" fill="#322B28" />
<rect x="39" y="41" width="1" height="1" fill="#322B28" />
<rect x="42" y="41" width="1" height="1" fill="#322B28" />
<rect x="45" y="41" width="1" height="1" fill="#322B28" />
<rect x="2" y="42" width="1" height="1" fill="#322B28" />
<rect x="3" y="42" width="1" height="1" fill="#322B28" />
<rect x="4" y="42" width="1" height="1" fill="#322B28" />
<rect x="7" y="42" width="1" height="1" fill="#322B28" />
<rect x="10" y="42" width="1" height="1" fill="#322B28" />
<rect x="11" y="42" width="1" height="1" fill="#322B28" />
<rect x="13" y="42" width="1" height="1" fill="#322B28" />
<rect x="17" y="42" width="1" height="1" fill="#322B28" />
<rect x="20" y="42" width="1" height="1" fill="#322B28" />
<rect x="21" y="42" width="1" height="1" fill="#322B28" />
<rect x="23" y="42" width="1" height="1" fill="#322B28" />
<rect x="25" y="42" width="1" height="1" fill="#322B28" />
<rect x="26" y="42" width="1" height="1" fill="#322B28" />
<rect x="27" y="42" width="1" height="1" fill="#322B28" />
<rect x="30" y="42" width="1" height="1" fill="#322B28" />
<rect x="34" y="42" width="1" height="1" fill="#322B28" />
<rect x="37" y="42" width="1" height="1" fill="#322B28" />
<rect x="38" y="42" width="1" height="1" fill="#322B28" />
<rect x="40" y="42" width="1" height="1" fill="#322B28" />
<rect x="42" y="42" width="1" height="1" fill="#322B28" />
<rect x="45" y="42" width="1" height="1" fill="#322B28" />
<rect x="25" y="43" width="1" height="1" fill="#322B28" />
<rect x="25" y="44" width="1" height="1" fill="#322B28" />
<rect x="25" y="45" width="1" height="1" fill="#322B28" />
</svg>