<?xml version="1.0" encoding="UTF-8" ?>
<svg version="1.1" width="48" height="16" xmlns="http://www.w3.org/2000/svg" shape-rendering="crispEdges">
<rect x="2" y="3" width="1" height="1" fill="#E4D2AA" />
<rect x="7" y="3" width="1" height="1" fill="#E4D2AA" />
<rect x="10" y="3" width="1" height="1" fill="#E4D2AA" />
<rect x="2" y="4" width="1" height="1" fill="#E4D2AA" />
<rect x="10" y="4" width="1" height="1" fill="#E4D2AA" />
<rect x="2" y="5" width="1" height="1" fill="#E4D2AA" />
<rect x="10" y="5" width="1" height="1" fill="#E4D2AA" />
<rect x="2" y="6" width="1" height="1" fill="#E4D2AA" />
<rect x="3" y="6" width="1" height="1" fill="#E4D2AA" />
<rect x="4" y="6" width="1" height="1" fill="#E4D2AA" />
<rect x="7" y="6" width="1" height="1" fill="#E4D2AA" />
<rect x="9" y="6" width="1" height="1" fill="#E4D2AA" />
<rect x="10" y="6" width="1" height="1" fill="#E4D2AA" />
<rect x="11" y="6" width="1" height="1" fill="#E4D2AA" />
<rect x="13" y="6" width="1" height="1" fill="#E4D2AA" />
<rect x="14" y="6" width="1" height="1" fill="#E4D2AA" />
<rect x="16" y="6" width="1" height="1" fill="#E4D2AA" />
<rect x="17" y="6" width="1" height="1" fill="#E4D2AA" />
<rect x="20" y="6" width="1" height="1" fill="#E4D2AA" />
<rect x="21" y="6" width="1" height="1" fill="#E4D2AA" />
<rect x="25" y="6" width="1" height="1" fill="#E4D2AA" />
<rect x="26" y="6" width="1" height="1" fill="#E4D2AA" />
<rect x="27" y="6" width="1" height="1" fill="#E4D2AA" />
<rect x="30" y="6" width="1" height="1" fill="#E4D2AA" />
<rect x="31" y="6" width="1" height="1" fill="#E4D2AA" />
<rect x="33" y="6" width="1" height="1" fill="#E4D2AA" />
<rect x="34" y="6" width="1" height="1" fill="#E4D2AA" />
<rect x="37" y="6" width="1" height="1" fill="#E4D2AA" />
<rect x="38" y="6" width="1" height="1" fill="#E4D2AA" />
<rect x="42" y="6" width="1" height="1" fill="#E4D2AA" />
<rect x="43" y="6" width="1" height="1" fill="#E4D2AA" />
<rect x="44" y="6" width="1" height="1" fill="#E4D2AA" />
<rect x="2" y="7" width="1" height="1" fill="#E4D2AA" />
<rect x="5" y="7" width="1" height="1" fill="#E4D2AA" />
<rect x="7" y="7" width="1" height="1" fill="#E4D2AA" />
<rect x="10" y="7" width="1" height="1" fill="#E4D2AA" />
<rect x="13" y="7" width="1" height="1" fill="#E4D2AA" />
<rect x="15" y="7" width="1" height="1" fill="#E4D2AA" />
<rect x="17" y="7" width="1" height="1" fill="#E4D2AA" />
<rect x="19" y="7" width="1" height="1" fill="#E4D2AA" />
<rect x="22" y="7" width="1" height="1" fill="#E4D2AA" />
<rect x="25" y="7" width="1" height="1" fill="#E4D2AA" />
<rect x="28" y="7" width="1" height="1" fill="#E4D2AA" />
<rect x="30" y="7" width="1" height="1" fill="#E4D2AA" />
<rect x="32" y="7" width="1" height="1" fill="#E4D2AA" />
<rect x="34" y="7" width="1" height="1" fill="#E4D2AA" />
<rect x="36" y="7" width="1" height="1" fill="#E4D2AA" />
<rect x="39" y="7" width="1" height="1" fill="#E4D2AA" />
<rect x="42" y="7" width="1" height="1" fill="#E4D2AA" />
<rect x="45" y="7" width="1" height="1" fill="#E4D2AA" />
<rect x="2" y="8" width="1" height="1" fill="#E4D2AA" />
<rect x="5" y="8" width="1" height="1" fill="#E4D2AA" />
<rect x="7" y="8" width="1" height="1" fill="#E4D2AA" />
<rect x="10" y="8" width="1" height="1" fill="#E4D2AA" />
<rect x="13" y="8" width="1" height="1" fill="#E4D2AA" />
<rect x="15" y="8" width="1" height="1" fill="#E4D2AA" />
<rect x="17" y="8" width="1" height="1" fill="#E4D2AA" />
<rect x="19" y="8" width="1" height="1" fill="#E4D2AA" />
<rect x="22" y="8" width="1" height="1" fill="#E4D2AA" />
<rect x="25" y="8" width="1" height="1" fill="#E4D2AA" />
<rect x="28" y="8" width="1" height="1" fill="#E4D2AA" />
<rect x="30" y="8" width="1" height="1" fill="#E4D2AA" />
<rect x="32" y="8" width="1" height="1" fill="#E4D2AA" />
<rect x="34" y="8" width="1" height="1" fill="#E4D2AA" />
<rect x="36" y="8" width="1" height="1" fill="#E4D2AA" />
<rect x="39" y="8" width="1" height="1" fill="#E4D2AA" />
<rect x="42" y="8" width="1" height="1" fill="#E4D2AA" />
<rect x="45" y="8" width="1" height="1" fill="#E4D2AA" />
<rect x="2" y="9" width="1" height="1" fill="#E4D2AA" />
<rect x="5" y="9" width="1" height="1" fill="#E4D2AA" />
<rect x="7" y="9" width="1" height="1" fill="#E4D2AA" />
<rect x="10" y="9" width="1" height="1" fill="#E4D2AA" />
<rect x="13" y="9" width="1" height="1" fill="#E4D2AA" />
<rect x="17" y="9" width="1" height="1" fill="#E4D2AA" />
<rect x="19" y="9" width="1" height="1" fill="#E4D2AA" />
<rect x="22" y="9" width="1" height="1" fill="#E4D2AA" />
<rect x="25" y="9" width="1" height="1" fill="#E4D2AA" />
<rect x="28" y="9" width="1" height="1" fill="#E4D2AA" />
<rect x="30" y="9" width="1" height="1" fill="#E4D2AA" />
<rect x="34" y="9" width="1" height="1" fill="#E4D2AA" />
<rect x="36" y="9" width="1" height="1" fill="#E4D2AA" />
<rect x="39" y="9" width="1" height="1" fill="#E4D2AA" />
<rect x="42" y="9" width="1" height="1" fill="#E4D2AA" />
<rect x="45" y="9" width="1" height="1" fill="#E4D2AA" />
<rect x="2" y="10" width="1" height="1" fill="#E4D2AA" />
<rect x="3" y="10" width="1" height="1" fill="#E4D2AA" />
<rect x="4" y="10" width="1" height="1" fill="#E4D2AA" />
<rect x="7" y="10" width="1" height="1" fill="#E4D2AA" />
<rect x="10" y="10" width="1" height="1" fill="#E4D2AA" />
<rect x="11" y="10" width="1" height="1" fill="#E4D2AA" />
<rect x="13" y="10" width="1" height="1" fill="#E4D2AA" />
<rect x="17" y="10" width="1" height="1" fill="#E4D2AA" />
<rect x="20" y="10" width="1" height="1" fill="#E4D2AA" />
<rect x="21" y="10" width="1" height="1" fill="#E4D2AA" />
<rect x="23" y="10" width="1" height="1" fill="#E4D2AA" />
<rect x="25" y="10" width="1" height="1" fill="#E4D2AA" />
<rect x="26" y="10" width="1" height="1" fill="#E4D2AA" />
<rect x="27" y="10" width="1" height="1" fill="#E4D2AA" />
<rect x="30" y="10" width="1" height="1" fill="#E4D2AA" />
<rect x="34" y="10" width="1" height="1" fill="#E4D2AA" />
<rect x="37" y="10" width="1" height="1" fill="#E4D2AA" />
<rect x="38" y="10" width="1" height="1" fill="#E4D2AA" />
<rect x="40" y="10" width="1" height="1" fill="#E4D2AA" />
<rect x="42" y="10" width="1" height="1" fill="#E4D2AA" />
<rect x="45" y="10" width="1" height="1" fill="#E4D2AA" />
<rect x="25" y="11" width="1" height="1" fill="#E4D2AA" />
<rect x="25" y="12" width="1" height="1" fill="#E4D2AA" />
<rect x="25" y="13" width="1" height="1" fill="#E4D2AA" />
</svg>